# File created by Blade
# Date/Time:  Tue Apr 07 21:12:38 2015
# Frame Rate: 120.000 fps
#------------------------------------------------------
:FULLY-SPECIFIED
:DEGREES
1240
root 3.759613 26.058901 9.991071 723.201319 -70.710546 -469.696374
Spine -71.896966 -23.659430 6.187360
Head -87.470190 10.226527 10.620950
LeftShoulder -21.170159 3.122139 37.516339
LeftArm 174.523953 -26.481674 -141.853338
LeftForeArm 35.193572 0.000000 112.246453
LeftHand -15.634935 -0.000000 -11.394398
LeftHandThumb1 -26.253704 0.000000 33.147579
RightShoulder -30.072158 64.759844 -59.163678
RightArm 94.054274 50.894181 95.767861
RightForeArm -30.356657 -0.000000 117.439812
RightHand -7.569365 -0.000000 11.172510
RightHandThumb1 -24.326973 -0.000000 -32.862282
LeftUpLeg 16.454712 -3.072132 21.015358
LeftLeg 72.142512 -0.000000 -0.000000
LeftFoot 34.241330 -1.567353 21.408474
LeftToeBase 121.429751 -0.000000 -0.000000
RightUpLeg -110.086228 -28.750624 0.096498
RightLeg 130.450290 -0.000000 -0.000000
RightFoot 48.861612 5.311618 -1.824183
RightToeBase 37.251407 -0.000000 -0.000000
1241
root 3.706080 26.012490 10.005863 723.034622 -70.757576 -468.997500
Spine -72.086082 -23.571310 6.177486
Head -87.650367 10.135588 10.673800
LeftShoulder -21.355032 3.088867 37.436805
LeftArm 174.889146 -26.421899 -142.035902
LeftForeArm 35.538697 0.000000 112.191819
LeftHand -15.721037 -0.000000 -11.659250
LeftHandThumb1 -26.253704 0.000000 33.147579
RightShoulder -30.637450 64.919296 -59.706507
RightArm 94.213067 51.032419 95.759863
RightForeArm -30.449394 0.000000 117.346819
RightHand -7.631802 -0.000000 11.144078
RightHandThumb1 -24.326973 -0.000000 -32.862282
LeftUpLeg 16.434303 -2.959550 20.945449
LeftLeg 72.622608 -0.000000 -0.000000
LeftFoot 33.877224 -1.600297 21.969688
LeftToeBase 121.437283 -0.000000 -0.000000
RightUpLeg -109.768628 -28.936217 -0.028323
RightLeg 130.355025 -0.000000 -0.000000
RightFoot 48.966698 5.682964 -1.627943
RightToeBase 37.426512 -0.000000 -0.000000
1242
root 3.650745 25.967029 10.019729 722.991730 -70.802572 -468.451835
Spine -72.240401 -23.479774 6.193354
Head -87.858210 10.070154 10.667959
LeftShoulder -21.560372 3.080541 37.324318
LeftArm 175.219659 -26.313849 -142.148274
LeftForeArm 35.939675 -0.000000 112.163000
LeftHand -15.840608 -0.000000 -11.842053
LeftHandThumb1 -26.253704 0.000000 33.147579
RightShoulder -31.205846 65.054595 -60.239211
RightArm 94.379483 51.160937 95.755012
RightForeArm -30.512688 -0.000000 117.262955
RightHand -7.679286 -0.000000 11.015919
RightHandThumb1 -24.326973 -0.000000 -32.862282
LeftUpLeg 16.438191 -2.839490 20.931583
LeftLeg 73.088198 -0.000000 -0.000000
LeftFoot 33.403320 -1.889221 23.114875
LeftToeBase 120.621006 -0.000000 -0.000000
RightUpLeg -109.398746 -29.098101 -0.078636
RightLeg 130.298555 -0.000000 -0.000000
RightFoot 49.030582 5.937338 -1.529591
RightToeBase 37.222874 -0.000000 -0.000000
1243
root 3.597206 25.921054 10.036856 722.982061 -70.822433 -467.914955
Spine -72.435330 -23.391322 6.211303
Head -88.018740 10.052072 10.749507
LeftShoulder -21.708708 3.054747 37.231805
LeftArm 175.586831 -26.218798 -142.321586
LeftForeArm 36.251574 0.000000 112.102700
LeftHand -15.948051 0.000000 -12.104605
LeftHandThumb1 -26.253704 0.000000 33.147579
RightShoulder -31.585794 65.070749 -60.596647
RightArm 94.749123 51.298529 95.901455
RightForeArm -30.569924 0.000000 117.181296
RightHand -7.709889 -0.000000 10.917058
RightHandThumb1 -24.326973 -0.000000 -32.862282
LeftUpLeg 16.409401 -2.771880 20.892337
LeftLeg 73.538714 -0.000000 -0.000000
LeftFoot 33.138395 -1.947704 23.649041
LeftToeBase 121.023583 -0.000000 -0.000000
RightUpLeg -109.008889 -29.302993 -0.107750
RightLeg 130.247969 -0.000000 -0.000000
RightFoot 49.087454 6.221138 -1.507874
RightToeBase 37.050055 -0.000000 -0.000000
